<svg width="30" height="30" viewBox="0 0 30 30" fill="none" xmlns="http://www.w3.org/2000/svg">
<path d="M27.1873 0.000318297H14.0624C12.5115 0.000318297 11.2499 1.26183 11.2499 2.81279V7.069L10.7332 7.3145L9.98258 6.97173C11.2606 3.57855 8.71169 -0.0846418 5.03204 0.00149016C2.27242 0.0669387 0.0346258 2.32711 0.000641735 5.08972C-0.027483 7.28345 1.33246 9.25042 3.38967 10.001L4.23166 10.4006L3.38967 10.8002C1.33246 11.5508 -0.027483 13.5178 0.000641735 15.7109C0.0345672 18.4715 2.26931 20.7342 5.03204 20.7997C8.79384 20.852 11.2424 17.1744 9.98258 13.8295L10.7332 13.4867L11.2499 13.7322V27.1876C11.2499 28.7385 12.5115 30 14.0624 30H27.1873C28.7383 30 29.9998 28.7385 29.9998 27.1876V2.81279C29.9998 1.26183 28.7383 0.000318297 27.1873 0.000318297ZM14.813 11.6246C15.2701 12.2372 14.8398 13.1252 14.0624 13.1252C13.6124 13.1252 13.2368 12.8082 13.1454 12.3857L14.813 11.6246ZM17.3436 15.4689C18.3772 15.4689 19.2186 16.3097 19.2186 17.3439C19.2186 18.3781 18.3772 19.2189 17.3436 19.2189C16.3101 19.2189 15.4687 18.3781 15.4687 17.3439C15.4687 16.3097 16.3101 15.4689 17.3436 15.4689ZM16.4061 12.1877C16.4061 11.6697 16.8257 11.2502 17.3436 11.2502C17.8616 11.2502 18.2811 11.6697 18.2811 12.1877C18.2811 12.7057 17.8616 13.1252 17.3436 13.1252C16.8257 13.1252 16.4061 12.7057 16.4061 12.1877ZM16.6036 24.2684L23.166 15.831C23.4842 15.422 24.0731 15.3488 24.4815 15.6664C24.8904 15.9845 24.9637 16.5734 24.6461 16.9818L18.0837 25.4192C17.7675 25.8267 17.1783 25.9026 16.7683 25.5839C16.3593 25.2657 16.286 24.6768 16.6036 24.2684ZM19.6874 12.1877C19.6874 11.6697 20.1069 11.2502 20.6249 11.2502C21.1428 11.2502 21.5623 11.6697 21.5623 12.1877C21.5623 12.7057 21.1428 13.1252 20.6249 13.1252C20.1069 13.1252 19.6874 12.7057 19.6874 12.1877ZM22.9686 12.1877C22.9686 11.6697 23.3881 11.2502 23.9061 11.2502C24.424 11.2502 24.8436 11.6697 24.8436 12.1877C24.8436 12.7057 24.424 13.1252 23.9061 13.1252C23.3881 13.1252 22.9686 12.7057 22.9686 12.1877ZM23.9061 22.0314C24.9397 22.0314 25.7811 22.8722 25.7811 23.9063C25.7811 24.9405 24.9397 25.7813 23.9061 25.7813C22.8725 25.7813 22.0311 24.9405 22.0311 23.9063C22.0311 22.8722 22.8725 22.0314 23.9061 22.0314ZM4.06291 8.25082C2.73636 7.78149 1.85746 6.52115 1.87562 5.11375C1.89748 3.3549 3.36412 1.8753 5.15684 1.8753C7.76717 1.8753 9.29909 4.76236 7.92361 6.919C7.61799 7.39765 7.80572 8.03854 8.32497 8.27602L8.5195 8.36449L6.41718 9.36292C3.92615 8.18057 4.12255 8.27151 4.06291 8.25082ZM7.92361 13.8822C9.33383 16.0934 7.69744 18.9867 5.07657 18.9247C3.33342 18.8837 1.8973 17.4312 1.87562 15.6869C1.85746 14.2801 2.73636 13.0197 4.06291 12.5504C4.12695 12.5282 3.26551 12.9345 18.529 5.68854C20.0756 4.95472 21.8497 4.96211 23.367 5.65866C10.8015 11.3952 38.0023 -1.02272 8.32497 12.5258C7.80713 12.7614 7.61723 13.4023 7.92361 13.8822ZM27.1873 13.1252C26.6693 13.1252 26.2498 12.7057 26.2498 12.1877C26.2498 11.6697 26.6693 11.2502 27.1873 11.2502C27.7053 11.2502 28.1248 11.6697 28.1248 12.1877C28.1248 12.7057 27.7053 13.1252 27.1873 13.1252Z" fill="white"/>
</svg>
