<svg width="30" height="30" viewBox="0 0 30 30" fill="none" xmlns="http://www.w3.org/2000/svg">
<g clip-path="url(#clip0_640_1341)">
<path d="M23.828 18.7265V21.0522H29.6773L28.326 18.125H24.7071C24.2388 18.125 23.828 18.4061 23.828 18.7265Z" fill="white"/>
<path d="M26.7773 27.8689C26.7773 26.7527 25.8591 25.8477 24.7266 25.8477C23.5938 25.8477 22.6756 26.7527 22.6756 27.8689C22.6756 28.9854 23.5938 29.8904 24.7266 29.8904C25.8591 29.8904 26.7773 28.9854 26.7773 27.8689Z" fill="white"/>
<path d="M11.2081 27.8689C11.2081 26.7527 10.2901 25.8477 9.15733 25.8477C8.0246 25.8477 7.10655 26.7527 7.10655 27.8689C7.10655 28.9854 8.0246 29.8904 9.15733 29.8904C10.2901 29.8904 11.2081 28.9854 11.2081 27.8689Z" fill="white"/>
<path d="M17.0107 14.7476C16.5086 15.3395 15.7755 15.6789 14.9998 15.6789C14.2239 15.6789 13.491 15.3395 12.9888 14.7476C12.1749 13.7886 11.1051 12.4107 10.1923 10.8479H3.73444C3.24898 10.8479 2.85553 11.2356 2.85553 11.714V12.5805H6.04866C6.53412 12.5805 6.92757 12.9683 6.92757 13.4469C6.92757 13.9252 6.53412 14.3132 6.04866 14.3132H2.85553V12.5805H0.878906C0.393448 12.5805 0 12.9683 0 13.4469C0 13.9252 0.393448 14.3132 0.878906 14.3132H2.85553V16.0458H9.98817C10.4734 16.0458 10.8671 16.4335 10.8671 16.9119C10.8671 17.3905 10.4734 17.7782 9.98817 17.7782H2.85553V19.4369H7.10655C7.59201 19.4369 7.98546 19.8246 7.98546 20.3032C7.98546 20.7816 7.59201 21.1696 7.10655 21.1696H2.85553V26.2809C2.85553 26.7593 3.24898 27.1473 3.73444 27.1473H5.42015C5.76256 25.4215 7.30774 24.115 9.15733 24.115C11.0069 24.115 12.5521 25.4215 12.8945 27.1473H19.1991V12.2917C19.1991 12.1596 19.1805 12.0319 19.1469 11.9104C18.4085 13.0319 17.6342 14.0126 17.0107 14.7476Z" fill="white"/>
<path d="M2.10938 16.0454C1.62392 16.0454 1.23047 16.4334 1.23047 16.9117C1.23047 17.3901 1.62392 17.778 2.10938 17.778H2.85553V16.0454H2.10938Z" fill="white"/>
<path d="M0.878906 19.4365C0.393448 19.4365 0 19.8245 0 20.3028C0 20.7814 0.393448 21.1694 0.878906 21.1694H2.85553V19.4365H0.878906Z" fill="white"/>
<path d="M22.9491 22.7846C22.4636 22.7846 22.0702 22.3969 22.0702 21.9183V18.7263C22.0702 17.4393 23.253 16.3922 24.7069 16.3922H27.5242C26.6576 14.6062 24.6533 13.4568 22.3885 13.4568H20.9569V27.176H20.9839C21.3148 25.436 22.8667 24.1149 24.7266 24.1149C26.5862 24.1149 28.138 25.436 28.469 27.176H29.1211C29.6066 27.176 30 26.788 30 26.3096V22.7846H22.9491Z" fill="white"/>
<path d="M14.9998 0.117188C12.269 0.117188 10.0555 2.33093 10.0555 5.06149C10.0555 8.20953 12.9778 12.0179 14.3291 13.6102C14.6807 14.0245 15.3188 14.0245 15.6704 13.6102C17.0215 12.0177 19.9441 8.20953 19.9441 5.06149C19.9441 2.33093 17.7303 0.117188 14.9998 0.117188ZM14.9998 6.7852C14.0305 6.7852 13.242 5.9967 13.242 5.02739C13.242 4.05807 14.0305 3.26958 14.9998 3.26958C15.9691 3.26958 16.7576 4.05807 16.7576 5.02739C16.7576 5.9967 15.9691 6.7852 14.9998 6.7852Z" fill="white"/>
</g>
<defs>
<clipPath id="clip0_640_1341">
<rect width="30" height="30" fill="white"/>
</clipPath>
</defs>
</svg>
