<svg width="169" height="24" viewBox="0 0 169 24" fill="none" xmlns="http://www.w3.org/2000/svg">
<path d="M30.3177 0H26.3133V20.3066H30.3177V0Z" fill="black"/>
<path d="M21.7133 1.13629H17.7089V21.4425H21.7133V1.13629Z" fill="black"/>
<path d="M13.1089 2.40485H9.10443V22.7149H13.1089V2.40485Z" fill="black"/>
<path d="M4.50446 3.6875H0.5L0.500015 24H4.50447L4.50446 3.6875Z" fill="black"/>
<path d="M136.082 10.8275L129.634 3.65866H125.865V20.257H129.801V9.66694L135.687 15.9412H136.414L142.2 9.66694V20.257H146.135V3.65866H142.366L136.082 10.8275Z" fill="black"/>
<path d="M164.885 3.65866L155.131 14.447V3.65866H151.195V20.257H154.801L164.555 9.46867V20.257H168.491V3.65866H164.885Z" fill="black"/>
<path d="M104.667 9.73222C104.667 12.3749 106.112 14.4566 108.33 15.3295L104.171 20.257H108.988L112.772 15.7743H116.866V20.257H120.802V3.65866H110.782C107.046 3.65866 104.667 6.21429 104.667 9.73222ZM116.869 7.3144V12.2226H111.512C109.725 12.2226 108.766 11.2264 108.766 9.76606C108.766 8.3057 109.758 7.30956 111.512 7.30956L116.869 7.3144Z" fill="black"/>
<path d="M86.3783 6.97832C86.1374 12.6868 84.9331 16.3715 82.5751 16.3715H81.985V20.3561L82.6137 20.39C87.3417 20.6535 89.955 16.5045 90.3837 7.44254H96.6026V20.257H100.531V3.65866H86.5107L86.3783 6.97832Z" fill="black"/>
<path d="M71.5634 3.42676C66.2404 3.42676 62.4108 7.11151 62.4108 11.9568C62.4108 16.9689 66.5776 20.5231 71.5634 20.5231C76.7562 20.5231 80.7906 16.7707 80.7906 11.9568C80.7906 7.14294 76.7562 3.42676 71.5634 3.42676ZM71.5634 16.5386C68.5551 16.5386 66.5054 14.5801 66.5054 11.9568C66.5054 9.2682 68.5575 7.36296 71.5634 7.36296C74.5693 7.36296 76.6888 9.35524 76.6888 11.9568C76.6888 14.5584 74.5404 16.5386 71.5634 16.5386Z" fill="black"/>
<path d="M58.2369 3.68997H44.3467L44.2142 7.00963C44.0167 11.7921 42.7691 16.34 40.4111 16.4053L39.32 16.4391V24.0086L43.2893 24.0006V20.2593H57.0784V24.0006H61.0814V16.4053H58.2369V3.68997ZM54.3013 16.4053H45.9026C47.3237 14.2486 48.0848 11.1272 48.2172 7.47627H54.3013V16.4053Z" fill="black"/>
</svg>
