<svg width="24" height="28" viewBox="0 0 24 28" fill="none" xmlns="http://www.w3.org/2000/svg">
<path d="M22.9375 7.4375C23.0833 7.58333 23.2292 7.77083 23.375 8H16V0.625C16.2292 0.770834 16.4167 0.916666 16.5625 1.0625L22.9375 7.4375ZM15.5 10H24V26.5C24 26.9167 23.8542 27.2708 23.5625 27.5625C23.2708 27.8542 22.9167 28 22.5 28H1.5C1.08333 28 0.729167 27.8542 0.4375 27.5625C0.145833 27.2708 0 26.9167 0 26.5V1.5C0 1.08333 0.145833 0.729166 0.4375 0.4375C0.729167 0.145834 1.08333 0 1.5 0H14V8.5C14 8.91667 14.1458 9.27083 14.4375 9.5625C14.7292 9.85417 15.0833 10 15.5 10ZM18 21.5V20.5C18 20.3542 17.9531 20.2344 17.8594 20.1406C17.7656 20.0469 17.6458 20 17.5 20H6.5C6.35417 20 6.23438 20.0469 6.14062 20.1406C6.04688 20.2344 6 20.3542 6 20.5V21.5C6 21.6458 6.04688 21.7656 6.14062 21.8594C6.23438 21.9531 6.35417 22 6.5 22H17.5C17.6458 22 17.7656 21.9531 17.8594 21.8594C17.9531 21.7656 18 21.6458 18 21.5ZM18 17.5V16.5C18 16.3542 17.9531 16.2344 17.8594 16.1406C17.7656 16.0469 17.6458 16 17.5 16H6.5C6.35417 16 6.23438 16.0469 6.14062 16.1406C6.04688 16.2344 6 16.3542 6 16.5V17.5C6 17.6458 6.04688 17.7656 6.14062 17.8594C6.23438 17.9531 6.35417 18 6.5 18H17.5C17.6458 18 17.7656 17.9531 17.8594 17.8594C17.9531 17.7656 18 17.6458 18 17.5ZM18 13.5V12.5C18 12.3542 17.9531 12.2344 17.8594 12.1406C17.7656 12.0469 17.6458 12 17.5 12H6.5C6.35417 12 6.23438 12.0469 6.14062 12.1406C6.04688 12.2344 6 12.3542 6 12.5V13.5C6 13.6458 6.04688 13.7656 6.14062 13.8594C6.23438 13.9531 6.35417 14 6.5 14H17.5C17.6458 14 17.7656 13.9531 17.8594 13.8594C17.9531 13.7656 18 13.6458 18 13.5Z" fill="white"/>
</svg>
