<svg width="30" height="30" viewBox="0 0 30 30" fill="none" xmlns="http://www.w3.org/2000/svg">
<path d="M11.229 11.1001C10.6753 11.1001 10.2247 11.5506 10.2247 12.1043V17.8957C10.2754 19.2263 12.183 19.2254 12.2331 17.8957V12.1043C12.2331 11.5506 11.7827 11.1001 11.229 11.1001Z" fill="white"/>
<path d="M30 14.9997C30 14.0974 29.658 13.2747 29.097 12.653C28.4342 11.9338 28.1664 10.9355 28.3806 9.98127C28.5562 9.16254 28.4409 8.27881 27.9899 7.49759C27.5387 6.71636 26.8311 6.17474 26.0345 5.91715C25.1009 5.62556 24.3698 4.89439 24.078 3.96108C23.8209 3.16432 23.2792 2.45666 22.4979 2.00553C21.7165 1.55434 20.8328 1.43935 20.0142 1.61436C19.0599 1.82894 18.0613 1.56138 17.3419 0.898667C16.0888 -0.294354 13.9025 -0.293533 12.6491 0.898198C11.93 1.56138 10.9313 1.82894 9.97709 1.61489C9.15853 1.43935 8.27486 1.55434 7.49352 2.00553C6.71218 2.45666 6.1705 3.16432 5.91285 3.96108C5.62149 4.89439 4.8905 5.62556 3.95701 5.91715C3.16031 6.17474 2.45265 6.71636 2.00152 7.49759C1.55045 8.27881 1.43517 9.1626 1.61029 9.98127C1.82475 10.9356 1.55731 11.9344 0.894717 12.6536C-0.298538 13.9069 -0.297659 16.0928 0.894365 17.3464C1.55719 18.0651 1.82493 19.0639 1.61082 20.0182C1.43517 20.8369 1.55045 21.7206 2.00152 22.5019C2.45265 23.2831 3.16031 23.8248 3.95683 24.0824C4.89044 24.3739 5.62161 25.1046 5.91337 26.0384C6.1705 26.8351 6.71218 27.5429 7.49352 27.994C8.27486 28.4452 9.15853 28.5602 9.97721 28.3851C10.9314 28.1706 11.9301 28.4381 12.6495 29.1008C13.9027 30.2938 16.0891 30.2933 17.3422 29.1008C18.0614 28.4381 19.06 28.1706 20.0143 28.3846C20.8328 28.5602 21.7165 28.4452 22.4979 27.994C23.2792 27.5429 23.8209 26.8351 24.0785 26.0384C24.3699 25.1046 25.1009 24.3739 26.0344 24.0819C26.8311 23.8248 27.5387 23.2831 27.9899 22.5019C28.4409 21.7207 28.5562 20.837 28.3811 20.0182C28.1666 19.0639 28.4341 18.0652 29.0967 17.3459C29.658 16.7247 30 15.9019 30 14.9997ZM13.9915 17.8954C13.8521 21.5561 8.60443 21.5533 8.4664 17.8954V12.104C8.60577 8.44327 13.8534 8.44602 13.9915 12.104V17.8954ZM15.529 10.2913C15.5722 9.12603 17.2445 9.1269 17.2873 10.2913V11.233C17.2441 12.3982 15.5718 12.3973 15.529 11.233V10.2913ZM21.054 19.7081C21.0108 20.8733 19.3386 20.8724 19.2957 19.7081V18.7664C19.339 17.6012 21.0112 17.6021 21.054 18.7664V19.7081ZM20.9912 10.6178L17.2244 20.0346C17.0441 20.4854 16.5325 20.7046 16.0816 20.5243C15.6308 20.344 15.4115 19.8324 15.5919 19.3815L19.3586 9.96474C19.539 9.51397 20.0506 9.29471 20.5014 9.47499C20.9522 9.65534 21.1715 10.167 20.9912 10.6178Z" fill="white"/>
</svg>
