<svg width="42" height="42" viewBox="0 0 42 42" fill="none" xmlns="http://www.w3.org/2000/svg">
<path d="M15.7205 15.5405C14.9453 15.5405 14.3146 16.1713 14.3146 16.9465V25.0543C14.3855 26.9172 17.0561 26.9159 17.1264 25.0543V16.9465C17.1264 16.1712 16.4957 15.5405 15.7205 15.5405Z" fill="#337AB7"/>
<path d="M42 20.9982C42 19.735 41.5212 18.5832 40.7358 17.7128C39.8078 16.7059 39.433 15.3083 39.7327 13.9724C39.9786 12.8261 39.8172 11.5889 39.1857 10.4952C38.5542 9.40149 37.5634 8.64322 36.4483 8.28259C35.1413 7.87437 34.1176 6.85073 33.7092 5.54409C33.3492 4.42863 32.5908 3.4379 31.497 2.80632C30.4031 2.17467 29.1659 2.01367 28.0198 2.25869C26.6839 2.55909 25.2857 2.18451 24.2786 1.25672C22.5242 -0.413511 19.4635 -0.412363 17.7088 1.25606C16.7019 2.18451 15.3038 2.55909 13.9679 2.25943C12.8219 2.01367 11.5847 2.17467 10.4909 2.80632C9.397 3.4379 8.63865 4.42863 8.27793 5.54409C7.87004 6.85073 6.84665 7.87437 5.53976 8.28259C4.42438 8.64322 3.43365 9.40149 2.80207 10.4952C2.17058 11.5889 2.00918 12.8262 2.25436 13.9724C2.5546 15.3084 2.18018 16.7067 1.25255 17.7136C-0.418009 19.4682 -0.416778 22.5286 1.25206 24.2836C2.18002 25.2897 2.55484 26.6881 2.2551 28.024C2.00918 29.1703 2.17058 30.4075 2.80207 31.5012C3.43365 32.5949 4.42438 33.3532 5.53951 33.7139C6.84657 34.1221 7.8702 35.1451 8.27867 36.4524C8.63865 37.5678 9.397 38.5586 10.4909 39.1901C11.5847 39.8218 12.8219 39.9828 13.968 39.7377C15.304 39.4374 16.7021 39.812 17.7093 40.7398C19.4637 42.4099 22.5246 42.4092 24.2791 40.7398C25.2859 39.812 26.684 39.4374 28.02 39.737C29.1659 39.9828 30.4031 39.8218 31.497 39.1901C32.5908 38.5586 33.3492 37.5678 33.7099 36.4524C34.1178 35.1451 35.1412 34.1221 36.4481 33.7132C37.5634 33.3533 38.5542 32.595 39.1857 31.5013C39.8172 30.4076 39.9786 29.1703 39.7335 28.0241C39.4332 26.6881 39.8076 25.2898 40.7353 24.2829C41.5212 23.4131 42 22.2613 42 20.9982ZM19.588 25.0521C19.3929 30.1771 12.0461 30.1731 11.8529 25.0521V16.9442C12.048 11.8192 19.3947 11.823 19.588 16.9442V25.0521ZM21.7405 14.4064C21.8011 12.775 24.1422 12.7762 24.2022 14.4064V15.7247C24.1416 17.3561 21.8005 17.3548 21.7405 15.7247V14.4064ZM29.4756 27.5899C29.4151 29.2212 27.0739 29.22 27.014 27.5899V26.2716C27.0745 24.6402 29.4156 24.6415 29.4756 26.2716V27.5899ZM29.3876 14.8635L24.1141 28.047C23.8617 28.6781 23.1454 28.9851 22.5142 28.7327C21.8831 28.4802 21.5761 27.7639 21.8286 27.1327L27.102 13.9492C27.3545 13.3181 28.0707 13.0112 28.7019 13.2636C29.3331 13.5161 29.64 14.2323 29.3876 14.8635Z" fill="#337AB7"/>
</svg>
