<svg width="24" height="28" viewBox="0 0 24 28" fill="none" xmlns="http://www.w3.org/2000/svg">
<path d="M2.59498 23.7177H5.50123C5.82869 23.7177 6.14273 23.5876 6.37428 23.356C6.60583 23.1245 6.73591 22.8104 6.73591 22.483C6.73591 22.1555 6.60583 21.8415 6.37428 21.6099C6.14273 21.3784 5.82869 21.2483 5.50123 21.2483H1.8581C1.53064 21.2483 1.21659 21.3784 0.985045 21.6099C0.753496 21.8415 0.623413 22.1555 0.623413 22.483C0.623413 22.8104 0.753496 23.1245 0.985045 23.356C1.21659 23.5876 1.53064 23.7177 1.8581 23.7177H2.59498Z" fill="white"/>
<path d="M1.85861 20.308H2.45908C2.46283 20.308 2.46611 20.3057 2.47033 20.3057C2.47455 20.3057 2.47783 20.308 2.48158 20.308H5.5008C5.82907 20.3081 6.1441 20.1786 6.37736 19.9476C6.38111 19.9438 6.38392 19.9391 6.38767 19.9354C6.3352 19.7513 6.3073 19.561 6.30471 19.3696V18.1448C6.08159 17.9507 5.79651 17.8426 5.5008 17.8401H1.85861C1.69454 17.8369 1.53148 17.8664 1.37896 17.927C1.22645 17.9876 1.08755 18.078 0.970382 18.1929C0.853217 18.3078 0.760144 18.4449 0.696606 18.5962C0.633068 18.7475 0.600342 18.91 0.600342 19.0741C0.600342 19.2382 0.633068 19.4006 0.696606 19.5519C0.760144 19.7032 0.853217 19.8403 0.970382 19.9552C1.08755 20.0702 1.22645 20.1605 1.37896 20.2211C1.53148 20.2817 1.69454 20.3112 1.85861 20.308Z" fill="white"/>
<path d="M0.778126 7.12191C0.783539 7.99391 1.03208 8.8471 1.4958 9.58558C1.95953 10.3241 2.62006 10.9186 3.40313 11.3022C3.48796 11.3435 3.55836 11.4095 3.60511 11.4914C3.65186 11.5734 3.67279 11.6676 3.66516 11.7616L3.52453 13.496H5.50078C6.01882 13.4951 6.51983 13.6808 6.91219 14.0191C7.03818 13.8714 7.18157 13.7395 7.33922 13.6263L7.18688 11.7602C7.17924 11.6661 7.20017 11.572 7.24692 11.49C7.29367 11.4081 7.36407 11.3421 7.44891 11.3008C8.23198 10.9172 8.8925 10.3227 9.35623 9.58418C9.81995 8.8457 10.0685 7.9925 10.0739 7.12051C10.0777 6.23737 9.82845 5.37163 9.35571 4.62567C8.88296 3.87971 8.20648 3.28474 7.40625 2.91113V6.44223C7.41029 6.70484 7.36206 6.96563 7.26435 7.20942C7.16665 7.45322 7.02143 7.67514 6.83715 7.86228C6.65287 8.04942 6.4332 8.19804 6.19094 8.29948C5.94868 8.40092 5.68866 8.45316 5.42602 8.45316C5.16337 8.45316 4.90335 8.40092 4.66109 8.29948C4.41883 8.19804 4.19916 8.04942 4.01488 7.86228C3.8306 7.67514 3.68538 7.45322 3.58768 7.20942C3.48998 6.96563 3.44174 6.70484 3.44578 6.44223V2.91113C2.6453 3.2848 1.96864 3.87997 1.49587 4.62621C1.0231 5.37246 0.774026 6.23853 0.778126 7.12191Z" fill="white"/>
<path d="M1.85862 16.9026H5.50081C5.79596 16.9006 6.08085 16.794 6.30471 16.6016V15.6097C6.30806 15.3584 6.35093 15.1091 6.43174 14.871C6.31769 14.7349 6.17529 14.6254 6.01448 14.5501C5.85368 14.4748 5.67837 14.4355 5.50081 14.4351H1.85862C1.53045 14.4351 1.21551 14.5644 0.982055 14.7951C0.867408 14.9092 0.776523 15.045 0.714651 15.1944C0.652779 15.3439 0.621148 15.5042 0.621587 15.666C0.621959 15.9939 0.752423 16.3083 0.984345 16.5401C1.21627 16.772 1.53069 16.9023 1.85862 16.9026Z" fill="white"/>
<path d="M13.3964 15.5144L12.0722 14.3801C11.8766 14.2119 11.627 14.1198 11.3691 14.1204H8.73141C8.33656 14.1207 7.95798 14.2778 7.67878 14.557C7.39958 14.8362 7.24256 15.2147 7.24219 15.6096V17.9557V17.9744V19.3694C7.24219 19.7021 7.37434 20.0212 7.60958 20.2564C7.84483 20.4916 8.16388 20.6238 8.49656 20.6238C8.82924 20.6238 9.1483 20.4916 9.38354 20.2564C9.61878 20.0212 9.75094 19.7021 9.75094 19.3694V17.1761C9.75094 17.0518 9.80032 16.9326 9.88823 16.8447C9.97614 16.7568 10.0954 16.7074 10.2197 16.7074C10.344 16.7074 10.4632 16.7568 10.5511 16.8447C10.6391 16.9326 10.6884 17.0518 10.6884 17.1761V18.348C10.8262 18.6954 11.6981 20.4527 14.9203 20.0726V16.0001H14.708C14.2268 15.9999 13.7616 15.8276 13.3964 15.5144Z" fill="white"/>
<path d="M19.657 14.7471H18.5906V25.7444H19.657C19.6784 25.7444 19.6989 25.7359 19.7141 25.7208C19.7292 25.7057 19.7377 25.6852 19.7377 25.6638V14.8277C19.7377 14.8063 19.7292 14.7858 19.7141 14.7707C19.6989 14.7556 19.6784 14.7471 19.657 14.7471Z" fill="white"/>
<path d="M15.8578 14.8277V25.6638C15.8579 25.6852 15.8665 25.7057 15.8817 25.7208C15.8969 25.7359 15.9175 25.7444 15.9389 25.7444H17.6531V14.7471H15.9375C15.9163 14.7474 15.8961 14.7561 15.8812 14.7711C15.8663 14.7862 15.8579 14.8065 15.8578 14.8277Z" fill="white"/>
<path d="M6.23435 24.6553H2.59497C2.43077 24.6521 2.26759 24.6816 2.11496 24.7423C1.96233 24.8029 1.82332 24.8933 1.70607 25.0083C1.58882 25.1233 1.49568 25.2605 1.43209 25.412C1.36851 25.5634 1.33575 25.726 1.33575 25.8902C1.33575 26.0544 1.36851 26.217 1.43209 26.3684C1.49568 26.5198 1.58882 26.657 1.70607 26.772C1.82332 26.887 1.96233 26.9775 2.11496 27.0381C2.26759 27.0987 2.43077 27.1283 2.59497 27.1251H6.24278C6.57024 27.1243 6.88397 26.9934 7.11495 26.7613C7.34592 26.5292 7.47523 26.2148 7.47442 25.8874C7.47362 25.5599 7.34276 25.2462 7.11064 25.0152C6.87852 24.7842 6.56415 24.6549 6.23669 24.6557L6.23435 24.6553Z" fill="white"/>
<path d="M10.6331 19.8447C10.5249 20.3309 10.2543 20.7658 9.86598 21.0778C9.47765 21.3898 8.99469 21.5603 8.49656 21.5613C8.00682 21.5593 7.53216 21.3916 7.14985 21.0855C7.49169 21.4783 7.67779 21.9828 7.67295 22.5035C7.66812 23.0243 7.47268 23.5252 7.1236 23.9116C7.50571 24.0824 7.83035 24.36 8.05845 24.7109C8.28656 25.0618 8.40842 25.4712 8.40938 25.8897C8.40669 26.251 8.31285 26.6057 8.13656 26.921C9.95625 26.6468 12.7303 26.0139 14.9203 24.5796V21.0171C14.6355 21.0491 14.3491 21.0664 14.0625 21.0691C13.4383 21.1019 12.8138 21.0105 12.2252 20.8004C11.6365 20.5902 11.0954 20.2654 10.6331 19.8447Z" fill="white"/>
<path d="M12.8653 11.3886H23.3784V0.875H12.8653V11.3886ZM19.208 3.56797H21.7683C21.8926 3.56797 22.0118 3.61735 22.0997 3.70526C22.1876 3.79317 22.237 3.9124 22.237 4.03672C22.237 4.16104 22.1876 4.28027 22.0997 4.36818C22.0118 4.45608 21.8926 4.50547 21.7683 4.50547H19.208C19.0836 4.50547 18.9644 4.45608 18.8765 4.36818C18.7886 4.28027 18.7392 4.16104 18.7392 4.03672C18.7392 3.9124 18.7886 3.79317 18.8765 3.70526C18.9644 3.61735 19.0836 3.56797 19.208 3.56797ZM19.208 7.24578H21.7683C21.8926 7.24578 22.0118 7.29517 22.0997 7.38308C22.1876 7.47098 22.237 7.59021 22.237 7.71453C22.237 7.83885 22.1876 7.95808 22.0997 8.04599C22.0118 8.1339 21.8926 8.18328 21.7683 8.18328H19.208C19.0836 8.18328 18.9644 8.1339 18.8765 8.04599C18.7886 7.95808 18.7392 7.83885 18.7392 7.71453C18.7392 7.59021 18.7886 7.47098 18.8765 7.38308C18.9644 7.29517 19.0836 7.24578 19.208 7.24578ZM14.594 3.58109C14.6819 3.49322 14.8012 3.44385 14.9255 3.44385C15.0497 3.44385 15.169 3.49322 15.2569 3.58109L15.7631 4.08781L17.1928 2.65859C17.2812 2.57321 17.3996 2.52596 17.5225 2.52703C17.6454 2.5281 17.763 2.57739 17.8499 2.6643C17.9368 2.75121 17.9861 2.86878 17.9872 2.99169C17.9882 3.11459 17.941 3.233 17.8556 3.32141L16.0945 5.0825C16.0066 5.17038 15.8874 5.21974 15.7631 5.21974C15.6388 5.21974 15.5196 5.17038 15.4317 5.0825L14.594 4.24437C14.5505 4.20084 14.5159 4.14914 14.4923 4.09224C14.4687 4.03533 14.4566 3.97434 14.4566 3.91273C14.4566 3.85113 14.4687 3.79014 14.4923 3.73323C14.5159 3.67633 14.5505 3.62463 14.594 3.58109ZM14.594 7.25891C14.6819 7.17103 14.8012 7.12166 14.9255 7.12166C15.0497 7.12166 15.169 7.17103 15.2569 7.25891L15.7631 7.76516L17.1928 6.33547C17.2812 6.25008 17.3996 6.20284 17.5225 6.2039C17.6454 6.20497 17.763 6.25427 17.8499 6.34118C17.9368 6.42809 17.9861 6.54566 17.9872 6.66856C17.9882 6.79147 17.941 6.90987 17.8556 6.99828L16.0945 8.75938C16.0066 8.84725 15.8874 8.89662 15.7631 8.89662C15.6388 8.89662 15.5196 8.84725 15.4317 8.75938L14.594 7.92172C14.5062 7.83382 14.4568 7.71461 14.4568 7.59031C14.4568 7.46602 14.5062 7.34681 14.594 7.25891Z" fill="white"/>
</svg>
