<svg width="38" height="38" viewBox="0 0 38 38" fill="none" xmlns="http://www.w3.org/2000/svg">
<g clip-path="url(#clip0_0_692)">
<path d="M30.9881 34.1152C30.9882 34.1149 30.9883 34.1147 30.9883 34.1144C29.5348 32.6782 24.2348 32.8754 24.2348 32.8754C24.2322 32.8907 23.73 32.776 23.2879 33.2182C22.8241 33.6818 22.8241 34.4337 23.2879 34.8974C25.2691 36.8786 28.2904 37.381 30.8085 36.1314C31.6032 35.7371 31.6981 34.6416 30.9881 34.1152Z" fill="white"/>
<path d="M20.1874 13.0615H16.6251V17.8113H20.1874C21.4969 17.8113 22.5623 16.7459 22.5623 15.4364C22.5623 14.1269 21.4969 13.0615 20.1874 13.0615Z" fill="white"/>
<path d="M37.299 6.58506C36.5228 6.23551 35.5483 5.88373 34.4321 5.55941C34.5576 2.55157 32.1405 0 29.0931 0C26.3643 0 24.4473 1.88357 23.9041 4.11C16.9495 4.14362 14.5426 6.6425 8.51567 6.46631C4.12291 6.33941 1.65083 5.38649 1.6293 5.37833C0.8502 5.067 0.0010376 5.64053 0.0010376 6.48041V31.4165C0.0010376 31.9026 0.296412 32.339 0.747636 32.5193C2.28299 33.1339 4.96146 33.5381 6.62691 33.6949C6.77979 34.4756 7.11747 35.2452 7.66592 35.9458C10.8679 40.0383 17.4743 37.5831 17.2121 32.388C19.1306 31.8744 21.2427 31.4165 24.3434 31.4165C31.1088 31.4165 36.2786 33.6674 36.3291 33.689C37.1139 34.0378 37.9989 33.463 37.9989 32.6039V7.66785C37.9989 7.20104 37.725 6.77727 37.299 6.58506ZM12.835 35.4523C10.3158 36.3205 8.05458 33.7341 9.21774 31.3475C9.72463 30.307 10.7184 29.6858 11.8754 29.6858C13.5125 29.6858 14.8439 31.0172 14.8439 32.6544C14.8439 34.0225 14.0046 35.0494 12.835 35.4523ZM20.1874 20.1864H16.6251V21.9675H20.1874C20.8432 21.9675 21.3748 22.4992 21.3748 23.1549C21.3748 23.8107 20.8432 24.3424 20.1874 24.3424H16.6251V25.5298C16.6251 26.1856 16.0935 26.7172 15.4377 26.7172C14.7818 26.7172 14.2502 26.1856 14.2502 25.5298V24.3424H13.0628C12.407 24.3424 11.8754 23.8107 11.8754 23.1549C11.8754 22.4992 12.407 21.9675 13.0628 21.9675H14.2502C14.2502 20.7919 14.2502 13.1138 14.2502 11.8743C14.2502 11.2186 14.7818 10.6869 15.4377 10.6869H20.1874C22.8064 10.6869 24.9371 12.8176 24.9371 15.4366C24.9371 18.0557 22.8064 20.1864 20.1874 20.1864ZM27.2237 7.65004C25.0588 5.8916 26.32 2.37487 29.0931 2.37487C30.7159 2.37487 32.0617 3.6918 32.0617 5.34345C32.0617 7.86823 29.134 9.19889 27.2237 7.65004Z" fill="white"/>
</g>
<defs>
<clipPath id="clip0_0_692">
<rect width="38" height="38" fill="white"/>
</clipPath>
</defs>
</svg>
