<svg width="30" height="30" viewBox="0 0 30 30" fill="none" xmlns="http://www.w3.org/2000/svg">
<path d="M11.0627 2.43644V3.375C11.0626 3.65106 10.839 3.875 10.5629 3.875H8.74957C8.4735 3.875 8.24994 3.65106 8.24988 3.37506V2.43637C8.25025 2.1605 8.47425 1.9375 8.75019 1.9375H10.5624C10.8383 1.9375 11.0623 2.16056 11.0627 2.43644Z" fill="white"/>
<path d="M8.43644 19.8456C8.41937 20.1114 8.18687 20.3125 7.9205 20.3125H7.165C7.09375 20.7831 6.85625 21.2156 6.49 21.53L5.63812 22.2606C5.45212 22.4206 5.175 22.4224 4.98688 22.2606L4.135 21.53C3.69188 21.1494 3.4375 20.5963 3.4375 20.0119V18.4375C3.4375 18.1614 3.66137 17.9375 3.9375 17.9375H6.6875C6.96362 17.9375 7.1875 18.1614 7.1875 18.4375V19.3125H7.9375C8.22469 19.3125 8.45513 19.5543 8.43644 19.8456Z" fill="white"/>
<path d="M23.375 4.875H3.3125C1.93181 4.875 0.8125 5.99431 0.8125 7.375V14.4375C0.8125 15.8182 1.93181 16.9375 3.3125 16.9375H8.34375C9.30331 16.9375 10.1782 16.3884 10.5954 15.5243L10.7881 15.125H16.75C17.5784 15.125 18.25 15.7966 18.25 16.625V20.5788C18.25 21.3131 17.7244 21.935 17 22.0575L13.3338 22.6763C12.8658 22.7556 12.4477 22.9597 12.111 23.2513C11.7635 23.5523 11.9836 24.1269 12.4433 24.1269H27.8749C28.1511 24.127 28.3751 23.9048 28.3751 23.6286V9.875C28.375 7.11356 26.1364 4.875 23.375 4.875ZM13.6875 10.4756C13.6875 11.4538 12.8913 12.25 11.9131 12.25H6.14938C5.17125 12.25 4.375 11.4538 4.375 10.4756V9.89938C4.375 8.92125 5.17125 8.125 6.14938 8.125H11.9131C12.8913 8.125 13.6875 8.92125 13.6875 9.89938V10.4756ZM24.3125 21.625H21.9375C21.6613 21.625 21.4375 21.4013 21.4375 21.125C21.4375 20.8488 21.6613 20.625 21.9375 20.625H24.3125C24.5888 20.625 24.8125 20.8488 24.8125 21.125C24.8125 21.4013 24.5888 21.625 24.3125 21.625ZM24.5 18.5H21.75C21.4738 18.5 21.25 18.2763 21.25 18C21.25 17.7238 21.4738 17.5 21.75 17.5H24.5C24.7763 17.5 25 17.7238 25 18C25 18.2763 24.7763 18.5 24.5 18.5ZM22.6875 13.8125C21.0675 13.8125 19.75 12.495 19.75 10.875C19.75 9.255 21.0675 7.9375 22.6875 7.9375C24.3075 7.9375 25.625 9.255 25.625 10.875C25.625 12.495 24.3075 13.8125 22.6875 13.8125Z" fill="white"/>
<path d="M12.6875 9.89938V10.4756C12.6875 10.9025 12.34 11.25 11.9131 11.25H6.14937C5.7225 11.25 5.375 10.9025 5.375 10.4756V9.89938C5.375 9.4725 5.7225 9.125 6.14937 9.125H11.9131C12.34 9.125 12.6875 9.4725 12.6875 9.89938Z" fill="white"/>
<path d="M22.6875 12.8125C23.7576 12.8125 24.625 11.9451 24.625 10.875C24.625 9.80495 23.7576 8.9375 22.6875 8.9375C21.6174 8.9375 20.75 9.80495 20.75 10.875C20.75 11.9451 21.6174 12.8125 22.6875 12.8125Z" fill="white"/>
<path d="M7.25 2.15914V3.37501C7.25 3.65114 7.02613 3.87501 6.75 3.87501H4.75C4.47388 3.87501 4.25 3.65114 4.25 3.37501V2.12501C4.25 1.30651 4.9095 0.6387 5.72481 0.6252C6.56356 0.611325 7.25 1.32033 7.25 2.15914Z" fill="white"/>
<path d="M15.0625 2.15914V3.37501C15.0625 3.65114 14.8386 3.87501 14.5625 3.87501H12.5625C12.2864 3.87501 12.0625 3.65114 12.0625 3.37501V2.12501C12.0625 1.30651 12.722 0.6387 13.5373 0.6252C14.3761 0.611325 15.0625 1.32033 15.0625 2.15914Z" fill="white"/>
<path d="M30 26.895V28.875C30 29.1513 29.7763 29.375 29.5 29.375H0.5C0.22375 29.375 0 29.1513 0 28.875V26.895C0 25.9188 0.79375 25.125 1.77 25.125H28.23C29.2062 25.125 30 25.9188 30 26.895Z" fill="white"/>
</svg>
