<svg width="30" height="30" viewBox="0 0 30 30" fill="none" xmlns="http://www.w3.org/2000/svg">
<path d="M18.6363 7.35938H14.5427L14.8606 8.63104H18.3184L18.6363 7.35938Z" fill="white"/>
<path d="M7.00646 17.171C6.72135 19.0656 5.15267 20.53 3.23766 20.6765V21.9601H8.32412V13.059C8.32412 12.708 8.60883 12.4232 8.95992 12.4232H24.2191C24.3878 12.4232 24.5494 12.4902 24.6687 12.6095L26.1265 14.0673V7.35898H24.2191V2.27258H24.8549C25.206 2.27258 25.4907 1.98787 25.4907 1.63678C25.4907 1.28568 25.206 1.00098 24.8549 1.00098H22.3117C21.9606 1.00098 21.6759 1.28568 21.6759 1.63678C21.6759 1.98787 21.9606 2.27258 22.3117 2.27258H22.9475V4.81578H10.2315V6.08738H22.9475V7.35898H19.9471L19.4317 9.42061C19.361 9.70361 19.1067 9.90219 18.8149 9.90219H14.3643C14.0725 9.90219 13.8182 9.70361 13.7474 9.42061L13.232 7.35898C12.8657 7.35898 4.87664 7.35898 4.50932 7.35898C3.80812 7.35898 3.23771 7.92939 3.23771 8.63059V12.4353C5.61949 12.6179 7.36178 14.7965 7.00646 17.171Z" fill="white"/>
<path d="M0.0585938 27.0693V28.3634C0.0585938 29.0646 0.629004 29.635 1.3302 29.635H28.6698C29.371 29.635 29.9414 29.0646 29.9414 28.3634V27.0693C28.2939 27.0693 1.47656 27.0693 0.0585938 27.0693Z" fill="white"/>
<path d="M1.3302 23.2314V25.7971H28.6698V23.2314C27.2591 23.2314 2.4187 23.2314 1.3302 23.2314Z" fill="white"/>
<path d="M2.91973 19.4173C4.49736 19.4173 5.7808 18.134 5.78086 16.5563C5.7808 14.9787 4.49736 13.6953 2.91973 13.6953C1.33143 13.6953 0.0585938 14.9621 0.0585938 16.5563C0.0585938 18.1501 1.33096 19.4173 2.91973 19.4173ZM2.91973 15.9204C3.26994 15.9204 3.55553 16.2057 3.55553 16.5562C3.55553 16.9064 3.27018 17.192 2.91973 17.192C2.57355 17.192 2.28393 16.9112 2.28393 16.5562C2.28393 16.389 2.56928 15.9204 2.91973 15.9204Z" fill="white"/>
<path d="M5.78087 1.63684H7.68827V6.08744H8.95987V1.63684H10.8673C11.2184 1.63684 11.5031 1.35213 11.5031 1.00104C11.5031 0.649941 11.2184 0.365234 10.8673 0.365234H5.78087C5.42971 0.365234 5.14507 0.649941 5.14507 1.00104C5.14507 1.35213 5.42971 1.63684 5.78087 1.63684Z" fill="white"/>
<path d="M29.3056 14.9666H28.6698V8.63098C28.6698 7.92979 28.0994 7.35938 27.3982 7.35938V14.9666H26.7624C26.4112 14.9666 26.1266 15.2513 26.1266 15.6024V18.1456C26.1266 18.4967 26.4113 18.7814 26.7624 18.7814H27.3982V20.053C27.3982 20.4041 27.6829 20.6888 28.034 20.6888C28.3851 20.6888 28.6698 20.4041 28.6698 20.053V18.7814H29.3056C29.6567 18.7814 29.9414 18.4967 29.9414 18.1456V15.6024C29.9414 15.2512 29.6567 14.9666 29.3056 14.9666Z" fill="white"/>
</svg>
