<svg width="103" height="20" viewBox="0 0 103 20" fill="none" xmlns="http://www.w3.org/2000/svg">
<path d="M9.99967 14.1668L5.10148 17.1587L6.43323 11.5757L2.07422 7.84169L7.79549 7.38301L9.99967 2.0835L12.2039 7.38301L17.9252 7.84169L13.5662 11.5757L14.8979 17.1587L9.99967 14.1668Z" fill="#FBE201"/>
<path d="M29.9997 14.1668L25.1015 17.1587L26.4332 11.5757L22.0742 7.84169L27.7955 7.38301L29.9997 2.0835L32.2039 7.38301L37.9252 7.84169L33.5662 11.5757L34.8979 17.1587L29.9997 14.1668Z" fill="#FBE201"/>
<path d="M49.9997 14.1668L45.1015 17.1587L46.4332 11.5757L42.0742 7.84169L47.7955 7.38301L49.9997 2.0835L52.2039 7.38301L57.9252 7.84169L53.5662 11.5757L54.8979 17.1587L49.9997 14.1668Z" fill="#FBE201"/>
<path d="M69.9997 14.1668L65.1015 17.1587L66.4332 11.5757L62.0742 7.84169L67.7955 7.38301L69.9997 2.0835L72.2039 7.38301L77.9252 7.84169L73.5662 11.5757L74.8979 17.1587L69.9997 14.1668Z" fill="#FBE201"/>
<path d="M89.9997 14.1668L85.1015 17.1587L86.4332 11.5757L82.0742 7.84169L87.7955 7.38301L89.9997 2.0835L92.2039 7.38301L97.9252 7.84169L93.5662 11.5757L94.8979 17.1587L89.9997 14.1668Z" fill="#FBE201"/>
</svg>
