<svg width="15" height="13" viewBox="0 0 15 13" fill="none" xmlns="http://www.w3.org/2000/svg">
<path fill-rule="evenodd" clip-rule="evenodd" d="M1.00395 5.50089C4.92405 3.69763 7.53809 2.5088 8.84599 1.93439C12.5804 0.294409 13.3563 0.00944434 13.8621 9.8038e-05C13.9735 -0.00194646 14.2221 0.0271637 14.3833 0.165119C14.5192 0.281656 14.5566 0.43918 14.5746 0.54968C14.5925 0.660181 14.6148 0.91185 14.597 1.10861C14.3947 3.35357 13.5192 8.80169 13.0737 11.3161C12.8851 12.3801 12.514 12.7368 12.1546 12.7719C11.3737 12.8477 10.7808 12.2269 10.0244 11.7034C8.84092 10.8842 8.17228 10.3744 7.02346 9.5751C5.6958 8.65137 6.55644 8.14365 7.3131 7.31387C7.51112 7.09677 10.9517 3.79246 11.0184 3.4927C11.0267 3.45522 11.0344 3.31541 10.9558 3.2417C10.8771 3.16791 10.7611 3.19313 10.6774 3.21318C10.5587 3.24161 8.66802 4.56109 5.00524 7.17154C4.46861 7.56067 3.9825 7.75023 3.54703 7.7403C3.06686 7.7293 2.14333 7.45368 1.45666 7.21798C0.614523 6.92903 -0.0547405 6.77616 0.00353766 6.28529C0.0338937 6.02964 0.367363 5.76813 1.00395 5.50089Z" fill="#ffffff"/>
</svg>
