<svg width="15" height="9" viewBox="0 0 15 9" fill="none" xmlns="http://www.w3.org/2000/svg">
<path fill-rule="evenodd" clip-rule="evenodd" d="M12.9097 5.39746C13.4072 5.88324 13.9324 6.3403 14.3786 6.87508C14.5758 7.11273 14.7624 7.35797 14.9052 7.63375C15.1075 8.02581 14.9242 8.45724 14.5727 8.48065L12.3875 8.47966C11.8238 8.52643 11.3742 8.29953 10.9962 7.91418C10.6937 7.60601 10.4135 7.27803 10.1226 6.95946C10.0033 6.82925 9.87844 6.70673 9.72928 6.60989C9.43097 6.41625 9.17206 6.47554 9.00159 6.78667C8.82796 7.10312 8.78858 7.45353 8.77153 7.8062C8.74812 8.32077 8.59258 8.45605 8.07569 8.47961C6.97104 8.53171 5.92268 8.36458 4.94878 7.80733C4.09016 7.31607 3.42434 6.62256 2.84482 5.83741C1.71646 4.30858 0.852368 2.62865 0.0757551 0.901646C-0.0990544 0.512551 0.0287877 0.303686 0.458098 0.296294C1.17098 0.282445 1.88377 0.283431 2.5975 0.295309C2.88725 0.299547 3.07906 0.465731 3.19093 0.739453C3.57663 1.68782 4.04857 2.59011 4.64096 3.42645C4.79872 3.64912 4.95958 3.87178 5.18865 4.0285C5.44207 4.20203 5.63501 4.14452 5.75422 3.86222C5.82988 3.68322 5.86299 3.49043 5.88005 3.29871C5.93653 2.63915 5.94397 1.98071 5.84491 1.32347C5.78409 0.913277 5.55306 0.647737 5.14375 0.570114C4.93489 0.53054 4.96598 0.452819 5.06711 0.333602C5.24276 0.12799 5.40796 0 5.73728 0H8.20693C8.59573 0.0767348 8.68208 0.251396 8.73531 0.642611L8.73742 3.38589C8.73319 3.53734 8.81307 3.98676 9.08586 4.087C9.30419 4.15837 9.44812 3.9837 9.57909 3.84527C10.1704 3.21769 10.5924 2.47601 10.9694 1.70803C11.1368 1.37033 11.2807 1.01963 11.4201 0.669224C11.5234 0.409203 11.6855 0.281262 11.9783 0.28693L14.3552 0.289049C14.4257 0.289049 14.497 0.290084 14.5653 0.301764C14.9658 0.370023 15.0756 0.542318 14.9518 0.933434C14.7569 1.54706 14.3777 2.05843 14.0069 2.57217C13.6105 3.12065 13.1866 3.65035 12.7935 4.20208C12.4323 4.70591 12.461 4.95986 12.9097 5.39746Z" fill="#ffffff"/>
</svg>
