<svg width="15" height="15" viewBox="0 0 15 15" fill="none" xmlns="http://www.w3.org/2000/svg">
<path d="M7.43609 0.620117C11.1999 0.620117 14.2511 3.67133 14.2511 7.43512C14.2511 11.1989 11.1999 14.2501 7.43609 14.2501C6.18631 14.2501 5.01504 13.9138 4.00805 13.3265L0.623911 14.2501L1.54529 10.8641C0.957755 9.8569 0.621094 8.68535 0.621094 7.43512C0.621094 3.67133 3.6723 0.620117 7.43609 0.620117ZM4.97678 4.2377C4.88864 4.24397 4.80214 4.26551 4.72345 4.30576C4.66438 4.33593 4.60959 4.37964 4.52345 4.46096C4.44212 4.53774 4.39496 4.6048 4.34526 4.6695C4.09338 4.99753 3.9579 5.40016 3.96044 5.81379C3.9618 6.14817 4.04867 6.47311 4.18579 6.77652C4.46393 7.39178 4.92263 8.0422 5.52853 8.64537C5.67409 8.7903 5.81666 8.93678 5.97041 9.07208C6.72242 9.73423 7.61864 10.2117 8.58764 10.4666C8.58764 10.4666 8.96928 10.5252 8.97483 10.5255C9.10131 10.5323 9.22753 10.5232 9.35401 10.5167C9.55256 10.5065 9.74637 10.4528 9.92184 10.3594C10.0346 10.2993 10.0879 10.2695 10.1826 10.2098C10.1826 10.2098 10.2116 10.1901 10.2677 10.1484C10.3596 10.0799 10.4165 10.0317 10.493 9.95222C10.5494 9.89361 10.598 9.82437 10.6355 9.74631C10.6887 9.63509 10.7423 9.42274 10.7637 9.24646C10.78 9.11179 10.7751 9.03819 10.7733 8.99266C10.7704 8.91934 10.7098 8.84383 10.6434 8.81184L10.2471 8.63365C10.2471 8.63365 9.6546 8.37577 9.29213 8.21048C9.25442 8.19322 9.21308 8.18522 9.17164 8.18277C9.08069 8.17714 8.97882 8.20085 8.91404 8.26909C8.91058 8.26782 8.86551 8.30671 8.37238 8.90407C8.34521 8.9366 8.28151 9.00729 8.17129 9.00066C8.15466 8.99948 8.13813 8.99712 8.12195 8.99285C8.07734 8.98113 8.03381 8.96559 7.99129 8.94759C7.90705 8.91179 7.87743 8.89825 7.81982 8.87345C7.42646 8.70153 7.06535 8.47164 6.74623 8.19022C6.66063 8.1148 6.58103 8.03366 6.49898 7.95415C6.21257 7.67655 5.97813 7.38133 5.80376 7.0901C5.79422 7.07429 5.77959 7.0513 5.76378 7.02558C5.73525 6.97924 5.70372 6.92399 5.6939 6.8861C5.66855 6.78588 5.73579 6.70528 5.73579 6.70528C5.73579 6.70528 5.90162 6.524 5.97868 6.42532C6.05283 6.33045 6.11689 6.23759 6.1576 6.17144C6.23792 6.04232 6.26327 5.90901 6.22111 5.80606C6.02993 5.33992 5.83266 4.87631 5.62939 4.41535C5.58922 4.32439 5.46983 4.25824 5.36133 4.24579C5.32453 4.24152 5.28782 4.23725 5.25093 4.2348C5.15961 4.23034 5.06801 4.23134 4.97678 4.2377Z" fill="#337AB7"/>
</svg>
